<?xml version="1.0" encoding="UTF-8"?>
<!DOCTYPE svg PUBLIC "-//W3C//DTD SVG 1.1//EN" "http://www.w3.org/Graphics/SVG/1.1/DTD/svg11.dtd">
<svg xmlns="http://www.w3.org/2000/svg" version="1.1" width="192px" height="192px" style="shape-rendering:geometricPrecision; text-rendering:geometricPrecision; image-rendering:optimizeQuality; fill-rule:evenodd; clip-rule:evenodd" xmlns:xlink="http://www.w3.org/1999/xlink">
<g><path style="opacity:1" fill="#212221" d="M 23.5,-0.5 C 71.5,-0.5 119.5,-0.5 167.5,-0.5C 167.5,7.5 167.5,15.5 167.5,23.5C 175.5,23.5 183.5,23.5 191.5,23.5C 191.5,71.5 191.5,119.5 191.5,167.5C 183.5,167.5 175.5,167.5 167.5,167.5C 167.5,175.5 167.5,183.5 167.5,191.5C 119.5,191.5 71.5,191.5 23.5,191.5C 23.5,183.5 23.5,175.5 23.5,167.5C 15.5,167.5 7.5,167.5 -0.5,167.5C -0.5,119.5 -0.5,71.5 -0.5,23.5C 7.5,23.5 15.5,23.5 23.5,23.5C 23.5,15.5 23.5,7.5 23.5,-0.5 Z"/></g>
<g><path style="opacity:1" fill="#44ff87" d="M 47.5,23.5 C 79.5,23.5 111.5,23.5 143.5,23.5C 143.5,31.5 143.5,39.5 143.5,47.5C 151.5,47.5 159.5,47.5 167.5,47.5C 167.5,79.5 167.5,111.5 167.5,143.5C 159.5,143.5 151.5,143.5 143.5,143.5C 143.5,151.5 143.5,159.5 143.5,167.5C 111.5,167.5 79.5,167.5 47.5,167.5C 47.5,159.5 47.5,151.5 47.5,143.5C 39.5,143.5 31.5,143.5 23.5,143.5C 23.5,111.5 23.5,79.5 23.5,47.5C 31.5,47.5 39.5,47.5 47.5,47.5C 47.5,39.5 47.5,31.5 47.5,23.5 Z"/></g>
<g><path style="opacity:1" fill="#212221" d="M 95.5,95.5 C 87.5,95.5 79.5,95.5 71.5,95.5C 71.5,79.5 71.5,63.5 71.5,47.5C 87.5,47.5 103.5,47.5 119.5,47.5C 119.5,55.5 119.5,63.5 119.5,71.5C 111.5,71.5 103.5,71.5 95.5,71.5C 95.5,79.5 95.5,87.5 95.5,95.5 Z"/></g>
<g><path style="opacity:1" fill="#212221" d="M 95.5,95.5 C 103.5,95.5 111.5,95.5 119.5,95.5C 119.5,111.5 119.5,127.5 119.5,143.5C 103.5,143.5 87.5,143.5 71.5,143.5C 71.5,135.5 71.5,127.5 71.5,119.5C 79.5,119.5 87.5,119.5 95.5,119.5C 95.5,111.5 95.5,103.5 95.5,95.5 Z"/></g>
</svg>
